<svg width="24" height="24" viewBox="0 0 24 24" fill="none" xmlns="http://www.w3.org/2000/svg">
<g clip-path="url(#clip0_1234_464)">
<path d="M23.8996 14.6508L19.8561 7.91119L23.4849 6.90319C23.8591 6.79927 24.0781 6.4117 23.9742 6.03755C23.8703 5.66339 23.4826 5.4443 23.1086 5.54826L18.5977 6.80123L18.5967 6.80152L12.7032 8.43858V0.703125C12.7032 0.314812 12.3883 0 12 0C11.6117 0 11.2969 0.314812 11.2969 0.703125V8.82919L5.04176 10.5667L5.04078 10.5669L0.515138 11.824C0.140935 11.9279 -0.0780654 12.3155 0.0258096 12.6896C0.112294 13.0008 0.394903 13.2047 0.702872 13.2047C0.766612 13.2047 0.830052 13.196 0.89145 13.1789L3.71267 12.3952L0.100481 18.4163C0.0349127 18.5256 0.000272012 18.6506 0.000262728 18.778C0.000262728 21.6572 2.34275 23.9996 5.222 23.9996C8.10134 23.9996 10.4438 21.6572 10.4438 18.778C10.4438 18.6506 10.4091 18.5256 10.3436 18.4163L6.30003 11.6766L17.2686 8.62987L13.6565 14.6508C13.5909 14.7601 13.5562 14.8851 13.5562 15.0126C13.5562 17.8918 15.8987 20.2342 18.778 20.2342C20.1727 20.2342 21.484 19.6911 22.4704 18.7048C23.4567 17.7185 23.9998 16.4072 23.9997 15.0125C23.9998 14.8851 23.9652 14.76 23.8996 14.6508ZM5.222 22.5934C3.35839 22.5934 1.80326 21.2501 1.47218 19.4811H8.97181C8.64078 21.2501 7.08565 22.5934 5.222 22.5934ZM8.49893 18.0749H1.94515L5.222 12.613L8.49893 18.0749ZM18.778 8.84756L22.055 14.3094H15.5011L18.778 8.84756ZM18.7781 18.828C16.9144 18.828 15.3593 17.4847 15.0282 15.7157H22.5279C22.1968 17.4847 20.6417 18.828 18.7781 18.828Z" fill="#242424"/>
</g>
<defs>
<clipPath id="clip0_1234_464">
<rect width="24" height="24" fill="white"/>
</clipPath>
</defs>
</svg>
